<svg width="128" height="128" viewBox="0 0 128 128" fill="none" xmlns="http://www.w3.org/2000/svg">
<circle cx="64" cy="64" r="60" fill="white"/>
<path d="M35.4156 65.76V62.8H54.6156V65.76H35.4156ZM74.76 55.28H74.56C74.32 55.8133 74.04 56.3333 73.72 56.84C73.4 57.3467 72.9867 57.8 72.48 58.2C72 58.5733 71.4133 58.88 70.72 59.12C70.0267 59.36 69.2 59.48 68.24 59.48C65.2 59.48 62.9333 58.2533 61.44 55.8C59.9733 53.3467 59.24 49.8267 59.24 45.24C59.24 40.44 60.0533 36.8 61.68 34.32C63.3067 31.84 65.8133 30.6 69.2 30.6C70.5067 30.6 71.64 30.7733 72.6 31.12C73.56 31.4667 74.3733 31.9333 75.04 32.52C75.7333 33.1067 76.3067 33.7733 76.76 34.52C77.2133 35.24 77.5867 35.9733 77.88 36.72L75 38.04C74.76 37.4267 74.48 36.8533 74.16 36.32C73.8667 35.76 73.4933 35.28 73.04 34.88C72.6133 34.4533 72.0933 34.12 71.48 33.88C70.8667 33.64 70.1467 33.52 69.32 33.52C67.08 33.52 65.4267 34.36 64.36 36.04C63.32 37.72 62.8 39.96 62.8 42.76V47.08C62.8 48.4933 62.9067 49.7867 63.12 50.96C63.3333 52.1067 63.68 53.1067 64.16 53.96C64.6667 54.8133 65.3067 55.48 66.08 55.96C66.88 56.4133 67.8533 56.64 69 56.64C70.8133 56.64 72.2267 56.0933 73.24 55C74.2533 53.9067 74.76 52.4933 74.76 50.76V47.88H68.88V45.2H77.88V59H74.76V55.28ZM84.3844 55.04L98.5844 47V46.68L84.3844 38.64V35.24L101.584 45.2V48.4L84.3844 58.36V55.04ZM50.4556 86.32H39.5756V99H36.2156V71.08H39.5756V83.4H50.4556V71.08H53.8156V99H50.4556V86.32ZM74.44 86.32H63.56V99H60.2V71.08H63.56V83.4H74.44V71.08H77.8V99H74.44V86.32Z" fill="black"/>
</svg>
